<svg width="951" height="951" viewBox="0 0 951 951" fill="none" xmlns="http://www.w3.org/2000/svg">
<path d="M107.72 777.807C89.9263 714.201 -19.4707 648.057 5.75829 590.474L940 576C950.021 622.333 954.343 652.185 937.958 702.874C588.767 1059.61 519.193 953.458 451.611 847.502C378.635 733.089 127.218 847.502 107.72 777.807Z" stroke="#7DD3FC" stroke-width="3"/>
<path d="M4.72553 601.24C-11.387 548.98 89.4303 569.241 136.945 534.183C259.49 470.59 656.162 512.146 754.198 528.517C865.262 547.063 1009.71 526.867 908.991 639.964C780.639 723.077 442.03 698.944 333.03 688.76C-27.5105 655.074 17.6403 623.592 4.72553 601.24Z" fill="#E0F2FE" stroke="#7DD3FC" stroke-width="2"/>
<path d="M180 586.885V477H364V586.885L277.264 618L180 586.885Z" fill="white"/>
<path d="M180 586.885V477M180 586.885L277.264 618M180 586.885L277.264 504.964M180 477L277.264 504.964M180 477H364M277.264 504.964L364 477M277.264 504.964V618M277.264 618L364 586.885V477M277.264 618L364 477" stroke="#7DD3FC" stroke-width="4"/>
<path d="M366 586.885V477H550V586.885L463.264 618L366 586.885Z" fill="white"/>
<path d="M366 586.885V477M366 586.885L463.264 618M366 586.885L463.264 504.964M366 477L463.264 504.964M366 477H550M463.264 504.964L550 477M463.264 504.964V618M463.264 618L550 586.885V477M463.264 618L550 477" stroke="#7DD3FC" stroke-width="4"/>
<path d="M266 445.885V336H450V445.885L363.264 477L266 445.885Z" fill="white"/>
<path d="M266 445.885V336M266 445.885L363.264 477M266 445.885L363.264 363.964M266 336L363.264 363.964M266 336H450M363.264 363.964L450 336M363.264 363.964V477M363.264 477L450 445.885V336M363.264 477L450 336" stroke="#7DD3FC" stroke-width="4"/>
<path d="M403 234.885V125H587V234.885L500.264 266L403 234.885Z" fill="white"/>
<path d="M403 234.885V125M403 234.885L500.264 266M403 234.885L500.264 152.964M403 125L500.264 152.964M403 125H587M500.264 152.964L587 125M500.264 152.964V266M500.264 266L587 234.885V125M500.264 266L587 125" stroke="#7DD3FC" stroke-width="4"/>
<path d="M267.5 448L178 477.212H364L267.5 448Z" fill="white" stroke="#7DD3FC" stroke-width="4"/>
<path d="M453.5 448L364 477.212L551.5 477L453.5 448Z" fill="white" stroke="#7DD3FC" stroke-width="4"/>
<path d="M353.5 307L264 336.212L451.5 336L353.5 307Z" fill="white" stroke="#7DD3FC" stroke-width="4"/>
<path d="M490.5 96L401 125.212H587L490.5 96Z" fill="white" stroke="#7DD3FC" stroke-width="4"/>
<circle cx="501" cy="209" r="26" fill="#BAE6FD" stroke="#7DD3FC" stroke-width="4"/>
<path d="M604 612.5C604 616.228 601.116 620.075 595.398 623.107C589.768 626.093 581.853 628 573 628C564.147 628 556.232 626.093 550.602 623.107C544.884 620.075 542 616.228 542 612.5C542 608.772 544.884 604.925 550.602 601.893C556.232 598.907 564.147 597 573 597C581.853 597 589.768 598.907 595.398 601.893C601.116 604.925 604 608.772 604 612.5Z" fill="#BAE6FD" stroke="#7DD3FC" stroke-width="4"/>
<path d="M766 617.5C766 621.228 763.116 625.075 757.398 628.107C751.768 631.093 743.853 633 735 633C726.147 633 718.232 631.093 712.602 628.107C706.884 625.075 704 621.228 704 617.5C704 613.772 706.884 609.925 712.602 606.893C718.232 603.907 726.147 602 735 602C743.853 602 751.768 603.907 757.398 606.893C763.116 609.925 766 613.772 766 617.5Z" fill="#BAE6FD" stroke="#7DD3FC" stroke-width="4"/>
<path d="M605.5 463L665.5 401L667.087 390.5L685 272V216.5L707 181L774 196L798 255.5L752 406.5L774 621.5C754.8 631.261 735.088 619.639 726 612.5L713 439L685 432L643.5 477L605.5 621.5C591.787 608.791 584.04 603.41 570 600.5L605.5 463Z" fill="white"/>
<path d="M752 406.5L774 621.5C754.8 631.261 735.088 619.639 726 612.5L713 439L685 432L643.5 477L605.5 621.5C591.787 608.791 584.04 603.41 570 600.5L605.5 463L665.5 401L667.087 390.5M752 406.5L667.087 390.5M752 406.5L798 255.5L774 196L707 181L685 216.5V272L667.087 390.5" stroke="#7DD3FC" stroke-width="4"/>
<path d="M704.5 161L707.5 181L772 194L744.5 151L704.5 161Z" fill="white" stroke="#7DD3FC" stroke-width="4"/>
<path d="M589 184L697.5 194L681.5 228.5L585 218L589 184Z" fill="white" stroke="#7DD3FC" stroke-width="4"/>
<path d="M684 216.5L512 184.5C521.559 208.23 519.441 219.286 504 235.5L684 271V216.5Z" fill="white" stroke="#7DD3FC" stroke-width="4"/>
<path d="M766 95.5C766 132.152 742.743 161 715 161C687.257 161 664 132.152 664 95.5C664 58.8478 687.257 30 715 30C742.743 30 766 58.8478 766 95.5Z" fill="#BAE6FD" stroke="#7DD3FC" stroke-width="4"/>
<path d="M759.193 43.9106L656.735 66.625L653.414 51.6439C653.957 12.0644 732.201 -7.28846 755.872 28.9295L759.193 43.9106Z" fill="white" stroke="#7DD3FC" stroke-width="4"/>
<path d="M758 35.9998C762.965 33.8976 769.022 35.2115 783 39.9998L758 44V35.9998Z" fill="white" stroke="#7DD3FC" stroke-width="4"/>
<path d="M674.131 37L654.867 42.5C652.393 48.35 652.362 51.119 654.867 55L676 49.5L674.131 37Z" stroke="#7DD3FC" stroke-width="4"/>
</svg>
