<svg width="1024" height="1024" viewBox="0 0 1024 1024" fill="none" xmlns="http://www.w3.org/2000/svg">
<rect width="1024" height="1024" fill="#0284C7"/>
<path d="M275 344.719C198.15 264.415 126.985 277.381 0 407.897V1024H1024V344.719C919.574 244.36 785.794 97.7038 653.723 285.864C439.868 578.181 351.85 425.023 275 344.719Z" fill="#0369A1"/>
<path d="M262.986 691.735C186.136 650.116 126.985 637.056 0 704.698V1024H1024V671.955C919.574 619.943 785.794 607.181 653.723 704.698C439.868 856.194 339.836 733.353 262.986 691.735Z" fill="#075985"/>
<path d="M320.189 607V432.92H373.181C386.152 432.92 396.392 434.797 403.901 438.552C411.581 442.307 417.042 447.597 420.285 454.424C423.698 461.251 425.405 469.272 425.405 478.488V485.656C425.405 499.139 419.602 509.464 407.997 516.632C416.189 519.875 422.418 524.568 426.685 530.712C430.952 536.856 433.085 544.195 433.085 552.728V559.896C433.085 569.283 431.378 577.56 427.965 584.728C424.552 591.725 418.92 597.187 411.069 601.112C403.218 605.037 392.722 607 379.581 607H320.189ZM373.181 461.08H350.909V504.6H373.181C380.008 504.6 385.128 503.064 388.541 499.992C392.125 496.749 393.917 492.397 393.917 486.936V478.488C393.917 473.027 392.125 468.76 388.541 465.688C385.128 462.616 380.008 461.08 373.181 461.08ZM379.581 532.76H350.909V578.84H379.581C386.749 578.84 392.21 577.133 395.965 573.72C399.72 570.307 401.597 565.699 401.597 559.896V551.448C401.597 545.645 399.72 541.123 395.965 537.88C392.21 534.467 386.749 532.76 379.581 532.76ZM564.659 599.576C555.784 603.16 547.422 605.72 539.571 607.256C531.72 608.792 524.296 609.56 517.299 609.56C498.014 609.56 483.422 604.099 473.523 593.176C463.624 582.253 458.675 567.747 458.675 549.656V534.296C458.675 522.179 460.894 511.683 465.331 502.808C469.768 493.933 476.083 487.021 484.275 482.072C492.467 477.123 502.11 474.648 513.203 474.648C522.248 474.648 530.696 476.525 538.547 480.28C546.568 483.864 553.054 489.581 558.003 497.432C563.123 505.112 565.683 515.011 565.683 527.128C565.683 530.712 565.427 534.552 564.915 538.648C564.403 542.573 563.55 546.755 562.355 551.192H487.091C487.432 561.773 490.078 569.709 495.027 575C499.976 580.291 507.912 582.936 518.835 582.936C524.638 582.936 530.611 582.253 536.755 580.888C543.07 579.523 549.555 577.475 556.211 574.744L564.659 599.576ZM513.203 499.48C505.352 499.48 499.208 502.04 494.771 507.16C490.504 512.109 488.03 519.277 487.347 528.664H536.499C536.67 527.811 536.755 527.043 536.755 526.36C536.755 525.507 536.755 524.739 536.755 524.056C536.755 515.864 534.451 509.72 529.843 505.624C525.235 501.528 519.688 499.48 513.203 499.48ZM663.087 502.04C658.82 502.04 653.956 503.064 648.495 505.112C643.034 507.16 636.548 511.171 629.039 517.144V607H599.599V477.208H627.503V494.616C635.524 487.619 643.119 482.584 650.287 479.512C657.455 476.269 664.708 474.648 672.047 474.648C684.506 474.648 693.978 478.659 700.463 486.68C706.948 494.531 710.191 505.624 710.191 519.96V607H680.751V523.544C680.751 509.208 674.863 502.04 663.087 502.04Z" fill="white"/>
</svg>
